# xmcd
#
# Track frame offsets:
#	150
#	15512
#	34055
#	49665
#	72002
#	87417
#	107617
#	126937
#	143790
#	163795
#	181275
#	197777
#	216305
#	231010
#	249550
#	267907
#	289752
#	304942
#
# Disc length: 4356 seconds
#
# Revision: 1
# Processed by: cddbd v1.5PL3 Copyright (c) Steve Scherf et al.
# Submitted via: CDex 1.50Beta5
#
DISCID=04110212
DTITLE=Various Artist - レゲエがあるさ。
DYEAR=1900
DGENRE=Pop
TTITLE0=Games People Play
TTITLE1=Tightrope
TTITLE2=Just The Two Of Us (Radio Edit)
TTITLE3=I Am The Living
TTITLE4=Brotherly Sisterly Love
TTITLE5=Having Some Fun (Kickin' In The Sunshine)
TTITLE6=Musical Garden
TTITLE7=Romance
TTITLE8=Jamaican In New York
TTITLE9=Champagne and Wine
TTITLE10=The Tide Is High
TTITLE11=I Won't Surrender
TTITLE12=I'm Still Waiting
TTITLE13=Falling In Love
TTITLE14=Guilty
TTITLE15=Fly (Featuring Super Cat)
TTITLE16=Lady With The Red Dress
TTITLE17=明日があるさ
EXTD=
EXTT0=
EXTT1=
EXTT2=
EXTT3=
EXTT4=
EXTT5=
EXTT6=
EXTT7=
EXTT8=
EXTT9=
EXTT10=
EXTT11=
EXTT12=
EXTT13=
EXTT14=
EXTT15=
EXTT16=
EXTT17=
PLAYORDER=
